<svg width="256" height="335" viewBox="0 0 256 335" fill="none" xmlns="http://www.w3.org/2000/svg">
<path d="M141.459 0.317954C137.676 1.15736 136.258 2.88862 137.361 5.35437C137.886 6.45608 138.149 6.50855 145.978 6.50855C152.598 6.50855 154.437 6.66593 156.224 7.45287C158.431 8.3972 158.431 8.3972 157.643 9.91862C156.487 12.2794 157.432 13.2762 163.212 16.2141C168.572 18.8897 171.829 21.7227 170.516 22.5621C170.148 22.8244 168.782 23.0343 167.468 23.0343C164.263 23.0343 162.634 24.1884 162.844 26.3394C163.055 28.4904 165.314 30.0118 169.465 30.8512C171.199 31.166 173.405 32.0054 174.351 32.6349C175.98 33.7366 176.138 34.0514 176.138 36.4122V39.0354L173.3 38.9305C171.724 38.8255 169.307 38.4058 167.941 37.9861C165.471 37.1467 160.165 33.7891 158.378 31.9005C157.222 30.6938 155.226 30.5889 154.122 31.7431C152.336 33.4743 153.702 36.1499 158.063 39.3502C159.639 40.5043 161.321 41.7634 161.793 42.1831C162.634 42.8652 162.687 43.9144 162.424 53.5675C162.109 64.0601 162.109 64.2699 163.475 68.5194C164.631 72.1393 165.366 73.3984 167.783 75.9691C171.409 79.9038 171.987 82.1072 169.78 83.8385C168.992 84.468 167.731 85.0976 166.995 85.255C163.16 86.0419 161.846 87.983 163.475 90.4488C164.578 92.1276 164.526 93.7539 163.265 95.8524C161.899 98.1083 161.058 98.3706 158.378 97.3214C153.597 95.4852 152.231 96.482 152.231 101.728C152.231 106.555 152.02 106.975 149.498 106.975C146.871 106.975 145.82 106.397 142.405 103.25C140.934 101.833 139.463 100.679 139.253 100.679C138.097 100.679 136.468 102.515 135.942 104.299C135.259 106.817 133.525 109.073 132.264 109.073C130.846 109.073 128.271 106.712 125.907 103.25C123.857 100.207 122.071 98.5805 120.863 98.5805C120.495 98.5805 119.234 99.4199 118.078 100.469C115.976 102.358 115.871 102.41 113.874 101.781C111.247 100.994 110.984 100.102 111.405 93.3342C111.72 88.665 111.615 88.1404 110.669 87.2486C109.723 86.4092 109.303 86.3567 105.94 86.9338C101.527 87.7207 98.269 87.7207 97.8487 87.0387C97.2707 86.1468 99.3724 82.2121 103.313 76.8085C105.415 73.923 107.622 70.6704 108.2 69.5162C109.934 66.1061 113.769 56.0333 114.662 52.3084C115.661 48.4787 116.554 47.3769 119.549 46.2228C125.013 44.1243 126.905 44.9637 128.586 50.0001C129.217 51.8887 129.532 53.7249 129.374 54.0397C129.164 54.3545 128.534 56.4005 128.008 58.5515C127.43 60.7549 126.222 64.3224 125.224 66.5258C121.808 74.1853 120.6 80.7432 121.703 86.0944C122.439 89.452 123.595 91.1833 126.642 93.3867C129.48 95.4327 132.264 95.4327 135.575 93.3342C137.834 91.9177 138.097 91.8653 139.463 92.5473C140.251 92.967 141.67 93.3342 142.51 93.3342C145.926 93.2818 150.444 90.134 151.653 86.8813C152.441 84.7828 152.388 77.6479 151.495 72.3492C151.075 69.8834 150.602 64.9519 150.392 61.4369C150.234 57.8695 149.971 54.6692 149.866 54.3545C149.709 53.9872 150.759 53.2003 152.178 52.6232C154.227 51.7313 154.91 51.0493 155.909 49.0033C157.38 45.9604 156.96 44.8587 154.175 44.6489C152.441 44.4915 152.178 44.6489 151.495 46.3277C151.075 47.3769 149.919 48.6885 148.973 49.2656C147.502 50.2099 146.661 50.3148 143.561 50.105C141.564 49.9476 139.042 49.6853 137.992 49.4754C135.68 49.1082 134.944 50.2624 136.205 52.2035C137.256 53.8298 137.203 53.9872 135.575 53.9872C132.737 53.9872 132.369 53.2528 133.788 50.5772C136.363 45.7506 139.358 44.5964 145.085 46.3277C149.288 47.5868 149.866 46.8523 148.763 41.8684C147.029 33.6842 148.08 31.6906 155.015 30.1692C156.644 29.8019 157.59 27.9658 156.907 26.6017C156.644 26.0771 155.541 25.4476 154.437 25.1328C148.605 23.5589 147.659 21.0407 150.444 14.7452C151.863 11.5974 152.02 9.91862 151.075 8.97429C150.129 8.02996 148.92 8.18735 145.768 9.60384C144.192 10.2859 141.722 11.0203 140.251 11.2302C137.992 11.545 137.466 11.44 136.52 10.4957C135.89 9.86616 135.417 8.92183 135.417 8.34474C135.417 7.82011 135.154 6.19377 134.839 4.72482C133.998 0.63273 132.002 0.580268 129.952 4.61989C127.115 10.1809 123.963 11.6499 118.918 9.86616C117.237 9.28907 115.451 8.97429 114.873 9.13168C113.506 9.60384 113.086 11.7023 113.822 14.7452C115.03 20.1488 114.19 22.0375 109.513 24.0311C107.306 24.9754 103.891 28.3855 103.891 29.6446C103.891 30.6938 105.205 31.4283 108.095 31.9529C109.671 32.2677 110.984 32.5825 111.142 32.6874C111.247 32.7923 110.932 33.5268 110.459 34.2613C109.723 35.3105 109.513 37.3041 109.303 43.5996L108.988 51.6264L106.15 58.9712C102.84 67.5751 97.2182 76.5462 95.169 76.5462C94.8012 76.5462 90.7554 73.0836 86.2367 68.7817C81.7705 64.5322 77.0942 60.4401 75.8857 59.6007C71.6823 56.8202 67.8466 58.0269 64.1161 63.378C55.9719 75.0248 45.043 86.0944 34.2717 93.649C28.7021 97.5837 19.2444 103.302 12.2036 106.922C1.9052 112.221 -0.616865 114.582 0.118737 118.044C0.854339 121.297 4.00692 122.346 11.3104 121.769C14.6731 121.507 16.1443 121.559 16.1443 121.926C16.1443 122.923 18.8766 125.232 21.3986 126.333C24.3411 127.697 29.6479 127.75 35.3225 126.596L39.3683 125.756L41.0497 127.382C43.5718 129.796 47.1447 130.373 55.0787 129.586C59.6499 129.114 61.594 129.114 62.1195 129.533C62.4873 129.848 66.3754 130.478 70.7365 131.002L78.723 131.842L79.4061 134.255C82.9265 146.112 94.013 164.683 102.578 173.13C105.047 175.543 107.306 177.642 107.622 177.747C107.937 177.852 108.62 178.901 109.145 180.107C110.249 182.678 115.293 189.131 118.918 192.541C120.337 193.853 124.33 197.84 127.746 201.302L134.051 207.703L131.161 210.588C129.585 212.162 127.063 215.467 125.591 217.985C123.069 222.13 122.807 222.812 122.807 225.645C122.807 228.216 123.069 229.16 124.33 230.944C126.642 234.301 128.113 235.403 130.741 235.77C133.105 236.138 133.105 236.138 136.363 232.885C138.097 231.101 140.566 227.953 141.775 225.907C146.241 218.353 153.754 211.9 165.892 205.185C168.939 203.506 171.461 201.775 171.566 201.302C171.882 199.676 168.414 197.735 164.631 197.368C161.636 197.105 161.163 196.895 161.478 196.213C162.529 193.8 163.79 189.288 164.053 186.665L164.368 183.727L168.204 182.416C170.305 181.734 174.719 179.635 178.029 177.747C183.126 174.914 185.017 173.445 190.64 167.989L197.207 161.588L199.887 161.903C203.513 162.323 204.931 161.85 207.453 159.595C210.028 157.286 211.394 154.768 212.34 150.414C213.969 143.279 214.862 120.038 213.706 115.788C213.391 114.687 212.392 113.008 211.447 112.011C209.713 110.227 209.713 110.175 210.658 108.968C211.552 107.814 213.811 101.466 213.916 99.6822C213.969 99.21 215.23 97.6886 216.701 96.2721C220.011 93.2293 221.955 89.5045 222.743 84.7828C223.216 81.9498 223.584 81.1104 224.687 80.3759C227.209 78.7496 231.203 74.71 233.252 71.6671C235.827 67.8898 236.825 65.1093 236.825 61.6992C236.825 59.7581 237.14 58.6564 238.086 57.4498C239.925 55.0365 241.816 51.0493 243.077 46.9572C244.444 42.4979 244.654 32.0054 243.393 29.015C242.657 27.2313 242.71 27.0214 244.023 24.4508C245.337 21.9326 245.442 21.303 245.337 16.0043C245.232 9.23661 244.391 7.03317 241.554 5.61668C240.555 5.09206 238.664 4.67235 237.35 4.67235C232.884 4.72482 231.36 5.77407 218.803 17.6306C213.443 22.667 197.68 34.1039 188.59 39.5075C184.072 42.2356 180.026 47.6917 178.555 53.2003C178.029 55.2463 176.506 66.4733 176.138 71.2999C176.033 72.6115 175.928 73.8181 175.928 74.028C175.822 74.71 174.089 73.8181 172.302 72.1918C171.409 71.2999 170.095 69.2539 169.465 67.68C168.414 65.0569 168.256 63.8502 168.309 56.2956C168.361 51.6789 168.519 47.272 168.729 46.4851C169.044 45.0686 169.15 45.0686 173.143 45.121C180.709 45.2784 183.389 42.2881 182.443 34.7334C182.128 32.2677 181.76 31.4283 179.816 29.3822C177.819 27.2313 177.556 26.6017 177.241 23.5589C176.716 18.8897 175.665 17.0011 172.092 14.2206C169.675 12.3319 169.044 11.545 169.044 10.3908C169.044 5.56422 156.802 -0.15421 146.766 0.00317826C144.402 0.0556409 142.037 0.160566 141.459 0.317954ZM239.347 14.9026C239.452 17.2109 239.242 19.939 238.979 20.9882C237.718 25.1853 231.045 34.1039 221.062 44.8063C218.435 47.6917 216.018 50.4198 215.755 50.8919C215.072 52.256 217.331 54.7742 218.803 54.302C220.116 53.8823 230.677 43.1275 234.986 37.7763L238.138 33.8416L238.296 37.7238C238.506 42.9701 236.667 49.0033 233.515 53.2528C229.364 58.8663 219.696 65.7389 210.974 69.3063C206.665 71.0901 205.509 72.1393 206.087 73.9755C206.56 75.4969 208.504 76.074 210.921 75.392C213.653 74.6575 220.484 71.195 225.423 67.9948C227.682 66.5783 229.626 65.4766 229.732 65.6339C230.152 66.0536 226.474 71.0376 224.267 73.0312C221.009 75.9691 216.859 78.4348 209.608 81.8974C206.087 83.5762 202.724 85.4124 202.146 85.9894C200.885 87.2486 200.78 88.77 201.936 89.8717C202.987 90.9209 204.196 90.6586 210.764 87.7207C213.601 86.4616 216.07 85.5697 216.228 85.7271C216.386 85.8845 216.018 87.0387 215.387 88.3503C212.603 94.0162 199.887 100.679 191.638 100.679C187.329 100.679 184.86 101.518 184.492 103.092C183.914 105.453 185.438 106.45 189.746 106.45C194.002 106.45 202.252 104.876 204.669 103.617C206.665 102.568 206.875 102.568 206.875 103.512C206.875 104.771 202.409 108.391 199.204 109.65C196.682 110.594 194.896 110.857 189.799 111.014C186.331 111.067 183.336 111.172 183.126 111.172C182.443 111.172 181.602 113.322 181.917 114.267C182.233 115.316 184.912 116.733 187.75 117.257C189.589 117.572 189.641 117.677 188.695 118.359C188.012 118.884 186.962 119.041 185.438 118.831C182.811 118.464 174.877 116.26 173.353 115.421C171.356 114.372 169.097 114.687 168.414 116.155C167.31 118.569 169.097 120.09 175.402 122.136C178.397 123.133 180.919 123.972 181.024 124.025C181.077 124.077 179.133 126.123 176.663 128.537L172.144 132.944L167.573 133.94C161.741 135.252 145.295 135.409 134.786 134.255L127.588 133.521L127.273 131.632C127.115 130.635 126.747 129.429 126.485 129.009C125.959 128.222 121.756 127.54 116.396 127.487L112.823 127.435V123.553C112.823 118.936 113.717 112.116 114.557 109.965C115.03 108.811 115.871 108.234 118.078 107.499L120.968 106.502L122.229 108.129C123.857 110.122 127.273 113.322 128.744 114.162C130.32 115.054 134.103 115.001 135.942 114.057C136.73 113.637 138.044 112.536 138.78 111.591L140.093 109.912L143.141 111.276C146.871 113.008 149.236 113.375 151.915 112.798C154.7 112.116 156.854 109.912 157.8 106.66L158.588 103.984L161.216 103.669C162.897 103.46 164.578 102.83 165.629 102.043C167.888 100.312 170.095 95.8524 170.095 93.0194C170.095 90.9734 170.305 90.6062 172.355 89.2421C173.563 88.3503 175.139 86.6715 175.875 85.4648C176.611 84.2582 177.819 82.4744 178.66 81.5301C180.867 78.907 181.602 76.074 182.758 66.0536C183.336 61.0172 184.124 55.666 184.545 54.1971C185.49 50.9969 187.855 47.5868 190.482 45.8031C202.041 37.8812 214.967 28.8576 216.859 27.3362C218.172 26.287 222.323 22.5621 226.054 19.0996C234.933 10.8629 235.616 10.3383 237.56 10.5482L239.189 10.7056L239.347 14.9026ZM133.21 14.6403C136.258 14.9026 138.359 15.3747 138.727 15.7944C139.095 16.2141 140.198 17.1585 141.302 17.9454C142.931 19.152 143.246 19.7291 143.561 22.0899C143.771 23.6114 144.139 25.3951 144.402 26.0246C144.664 26.7067 144.612 27.3362 144.349 27.4936C144.034 27.7034 143.824 28.8052 143.824 30.0118C143.771 31.2184 143.456 33.3694 143.088 34.7334C142.51 37.0418 142.247 37.3566 139.62 38.5632C135.627 40.3994 132.264 41.0814 129.952 40.4519C128.639 40.0846 128.061 40.0846 127.851 40.5043C127.693 40.924 127.325 40.8191 126.852 40.1896C126.432 39.7174 125.644 39.2977 125.066 39.2977C123.437 39.2977 121.44 37.4615 120.442 34.9958C118.498 30.1167 121.125 19.8341 125.066 16.7388C125.854 16.1092 126.485 15.2698 126.485 14.8501C126.485 14.0107 126.695 14.0107 133.21 14.6403ZM115.818 40.9765C115.713 41.6585 115.608 41.2388 115.608 40.0846C115.556 38.9305 115.661 38.4058 115.818 38.878C115.923 39.4026 115.923 40.3469 115.818 40.9765ZM146.451 56.1382C146.451 57.817 145.453 59.6532 144.402 60.0204C142.668 60.5451 141.249 59.8106 139.883 57.6072C137.781 54.3545 137.992 54.1446 142.51 54.7217C145.715 55.1414 146.451 55.4037 146.451 56.1382ZM139.305 63.9551C140.408 64.3748 141.617 64.3748 143.403 63.9551C144.822 63.6928 146.188 63.4305 146.451 63.4305C147.134 63.4305 147.134 66.4209 146.398 67.7325C145.663 69.0965 142.825 70.2507 139.988 70.2507C136.468 70.2507 135.837 69.5162 135.522 64.9519L135.259 61.0697L136.52 62.2239C137.203 62.8534 138.464 63.6404 139.305 63.9551ZM79.7214 70.9327C83.3468 74.4477 87.6553 78.5922 89.3367 80.0612C90.9655 81.5826 92.3317 83.0515 92.3317 83.3139C92.3317 83.5762 90.6503 85.7271 88.6011 88.1404C81.8756 96.1147 79.9315 101.413 79.1434 114.162C78.4078 126.228 78.723 125.336 75.0976 125.284C69.8958 125.232 69.7382 124.917 73.3637 121.717C77.0942 118.516 78.4603 116.365 77.6722 114.896C76.4111 112.588 74.467 113.06 70.2111 116.68C66.8483 119.566 62.4873 121.926 58.3364 122.976C55.1838 123.815 46.5667 124.077 47.46 123.343C47.7227 123.081 50.1922 122.031 52.977 120.93C58.6516 118.779 67.0585 114.005 69.5806 111.591C72.0501 109.23 72.6806 107.289 71.6297 105.663C70.4212 103.827 69.0026 104.037 66.428 106.345C61.5415 110.752 56.4448 113.532 46.6193 117.1C40.1565 119.408 30.9089 121.664 27.7563 121.664C25.7597 121.664 21.7139 120.09 22.2919 119.513C22.502 119.303 26.3902 118.149 30.8564 116.942C43.5718 113.532 51.2431 110.28 60.0703 104.614C66.0076 100.784 67.2687 98.528 64.3788 96.9541C62.9601 96.2197 61.8042 96.6918 55.6041 100.522C48.2481 105.138 41.2599 107.971 27.1784 112.011C14.8833 115.526 8.05273 116.785 10.1019 115.106C10.6799 114.634 14.3579 112.536 18.2461 110.437C27.336 105.506 36.2158 99.892 41.8904 95.4852C50.4549 88.8224 62.4873 76.4412 67.111 69.4637C69.5806 65.7389 70.8416 64.4798 72.0501 64.4798C72.6806 64.4798 75.623 66.9455 79.7214 70.9327ZM132.947 70.513C133.473 71.2474 134.891 72.3492 136.047 72.9262C138.254 74.028 141.144 74.0804 145.453 73.0836C146.819 72.7689 146.819 72.8213 147.187 76.3888C147.765 82.6318 147.292 84.3106 144.297 87.2486C142.668 88.8224 141.459 89.6094 141.144 89.2946C140.881 89.0323 140.461 86.5141 140.198 83.6286C139.831 80.2186 139.41 78.225 138.885 77.6479C137.414 76.2314 136.73 77.7528 136.52 82.9466C136.363 87.6683 136.363 87.6683 134.314 89.7143C132.107 91.9177 131.003 92.18 129.217 90.9209C127.273 89.5569 126.38 87.0912 126.064 82.2646C125.802 77.3856 126.432 74.5526 129.007 69.4637C130.425 66.5783 130.163 66.5258 132.947 70.513ZM100.528 93.0719L104.732 93.4391L105.31 97.846C105.73 101.466 106.15 102.725 107.517 104.614C109.145 106.922 109.408 107.761 108.83 109.283C108.567 109.965 108.41 110.017 107.359 109.335C106.15 108.496 105.467 108.758 105.467 109.965C105.467 110.332 106.045 110.647 106.834 110.647C108.2 110.647 108.2 110.699 107.884 113.637C107.727 115.316 107.464 118.936 107.254 121.717L106.939 126.753L104.522 126.333C101.054 125.651 94.6436 122.766 89.4943 119.513L85.0282 116.68L84.9756 112.431C84.9756 106.292 87.4452 98.8953 91.1232 93.9638C92.2791 92.3899 92.6469 92.2325 94.3808 92.4948C95.4317 92.6522 98.1639 92.9145 100.528 93.0719ZM208.294 128.956C207.926 139.606 207.243 147.004 206.297 150.833C205.404 154.348 201.463 157.601 200.307 155.817C199.992 155.24 200.991 150.728 201.779 149.207C202.619 147.686 202.935 133.521 202.199 131.107C201.884 130.006 200.728 128.327 199.572 127.278C197.891 125.809 197.365 124.864 196.892 122.451C196.209 119.093 196.419 117.992 197.838 117.992C199.467 117.992 200.255 119.408 200.623 123.028C201.096 127.96 203.04 129.691 205.299 127.435C206.087 126.648 206.35 125.704 206.35 123.29C206.35 121.612 206.613 119.461 206.928 118.516C207.506 116.995 207.611 116.942 208.084 117.782C208.399 118.359 208.504 122.399 208.294 128.956ZM88.0231 125.336C95.3792 130.268 105.835 133.206 116.029 133.206C118.183 133.206 120.232 133.416 120.6 133.626C121.125 133.993 121.178 138.4 120.915 155.398C120.705 167.097 120.39 176.96 120.179 177.274C119.339 178.638 113.717 175.228 107.727 169.72C103.156 165.47 99.6351 160.801 94.3283 151.883C87.6553 140.76 83.557 129.691 84.2926 125.022C84.4502 124.025 84.6604 123.238 84.7129 123.238C84.818 123.238 86.2892 124.182 88.0231 125.336ZM187.067 130.163C183.441 133.888 182.706 135.094 182.706 137.298C182.706 141.075 187.119 141.547 188.275 137.927C188.59 136.931 190.009 135.094 191.375 133.888C193.95 131.579 195.999 131.002 196.577 132.471C196.735 132.944 196.892 136.091 196.892 139.501C196.892 144.695 196.682 146.426 195.579 149.941C194.16 154.453 193.582 155.188 192.426 154.191C192.006 153.876 191.428 153.719 191.112 153.929C190.219 154.506 190.535 155.87 191.638 156.132C192.216 156.289 192.689 156.657 192.689 156.971C192.689 157.916 182.495 167.884 179.29 169.982C174.719 173.025 165.997 177.17 163.317 177.589L161.005 177.956L161.268 173.707C161.531 170.402 162.319 167.254 165.051 159.07C168.887 147.738 170.305 145.115 177.819 135.829C180.499 132.524 182.39 130.793 185.123 129.166C187.119 127.96 189.116 126.91 189.536 126.91C189.957 126.91 188.853 128.379 187.067 130.163ZM144.192 141.023C149.026 141.6 164.105 141.075 165.997 140.288C166.68 140.026 166.47 140.708 165.104 142.911C164.105 144.59 162.949 146.899 162.529 148.105C158.746 158.65 157.853 161.378 156.749 165.785C156.014 168.513 155.278 172.5 155.121 174.546L154.7 178.271L152.336 178.639C149.656 179.058 148.027 180.37 148.027 182.206C148.027 184.252 149.131 184.724 153.754 184.514L158.01 184.357V185.983C158.01 189.551 156.539 192.856 153.912 195.059C150.287 198.155 140.776 202.981 138.99 202.614C137.992 202.404 134.629 199.414 128.586 193.38C123.7 188.449 119.812 184.304 119.864 184.2C119.969 184.095 123.069 184.252 126.747 184.567C130.373 184.829 133.683 184.986 134.051 184.829C134.419 184.672 134.997 183.99 135.364 183.255C136.468 180.789 134.314 178.848 130.53 178.848C129.585 178.848 128.271 178.691 127.588 178.481L126.327 178.166L126.695 160.277C126.852 150.414 127.168 141.81 127.378 141.128C127.693 139.869 127.693 139.869 133.525 140.183C136.73 140.341 141.512 140.76 144.192 141.023ZM162.582 202.614C162.687 202.771 159.902 204.608 156.434 206.706C147.922 211.9 145.085 214.523 140.093 221.92C133.893 231.154 131.739 233.305 131.739 230.209C131.739 228.793 132.79 226.799 137.046 220.241C140.986 214.261 141.407 212.949 139.463 212.949C136.625 212.949 132.107 217.408 129.48 222.76C127.798 226.17 127.01 226.852 127.01 225.015C127.01 223.389 128.429 220.976 131.897 216.621C136.888 210.378 137.992 209.382 140.093 209.014C141.144 208.857 145.085 207.231 148.815 205.394C155.278 202.299 155.804 202.142 159.009 202.247C160.848 202.352 162.424 202.509 162.582 202.614Z" fill="black"/>
<path d="M132.527 17.6831C131.949 17.788 131.108 17.9978 130.688 18.1552C130.268 18.3126 129.217 18.5225 128.324 18.6274C126.38 18.8897 122.544 22.9818 122.071 25.2902C121.23 29.3822 122.491 33.5793 124.803 34.4187C125.276 34.6285 126.222 35.3105 126.905 35.9925C127.851 36.9369 128.691 37.1992 130.951 37.1992C132.527 37.1992 133.946 36.9369 134.103 36.6221C134.314 36.3598 134.734 36.2024 135.049 36.3073C135.89 36.6221 138.097 35.4679 139.147 34.2613C140.724 32.3726 141.932 25.9722 141.302 23.0343C140.986 21.6178 140.619 21.1981 139.725 21.1456C138.464 21.0931 137.414 20.4111 138.569 20.4111C139.095 20.4111 139.095 20.2537 138.569 19.6242C138.202 19.2045 137.519 18.8372 137.046 18.8372C136.573 18.8372 135.627 18.5225 134.891 18.1552C134.156 17.788 133.105 17.5781 132.527 17.6831ZM137.203 21.6702C138.464 22.4572 138.569 22.8769 138.569 25.9722C138.569 31.9004 136.625 34.576 132.369 34.576C126.222 34.576 122.912 30.2216 125.118 24.9754C126.485 21.7227 129.164 20.3062 133.42 20.621C134.786 20.7259 136.468 21.1456 137.203 21.6702Z" fill="black"/>
<path d="M129.952 25.3951C129.48 25.8673 129.112 26.4443 129.112 26.7067C129.112 27.3362 131.739 30.379 132.317 30.379C133.052 30.379 134.891 28.3855 134.891 27.5985C134.891 25.4476 131.476 23.9261 129.952 25.3951Z" fill="black"/>
<path d="M70.7891 67.9423C70.2636 68.5194 70.2636 68.8342 70.7891 69.4113C71.5772 70.4081 72.8908 69.9359 72.8908 68.6768C72.8908 67.4177 71.5772 66.9455 70.7891 67.9423Z" fill="black"/>
<path d="M80.2993 74.3952C79.4061 74.9723 79.7739 76.8085 80.7722 76.8085C81.6654 76.8085 82.1383 75.0772 81.4553 74.3952C81.2451 74.1854 80.7197 74.1854 80.2993 74.3952Z" fill="black"/>
<path d="M87.0248 83.1565C86.4994 83.786 86.5519 84.1008 87.1825 84.7828C88.1808 85.7271 89.1791 85.3074 89.1791 83.8909C89.1791 82.6318 87.8655 82.1597 87.0248 83.1565Z" fill="black"/>
<path d="M103.786 117.782C103.208 118.306 103.944 119.566 104.784 119.566C105.205 119.566 105.467 119.198 105.362 118.674C105.205 117.729 104.311 117.257 103.786 117.782Z" fill="black"/>
<path d="M117.552 137.718C116.974 138.347 116.974 138.662 117.657 139.292C118.393 140.026 118.551 140.026 119.339 139.239C120.022 138.557 120.074 138.19 119.601 137.613C118.813 136.668 118.34 136.668 117.552 137.718Z" fill="black"/>
<path d="M116.712 147.633C116.029 149.312 117.92 150.151 119.181 148.63C119.707 147.948 119.707 147.738 119.076 147.318C117.973 146.636 117.027 146.741 116.712 147.633Z" fill="black"/>
<path d="M116.501 159.699C115.976 160.329 115.976 160.644 116.501 161.221C117.342 162.27 118.708 161.641 118.498 160.329C118.288 158.965 117.395 158.65 116.501 159.699Z" fill="black"/>
<path d="M115.608 169.248C114.715 169.562 114.768 170.717 115.608 171.451C116.134 171.871 116.501 171.818 116.922 171.399C118.183 170.14 117.237 168.671 115.608 169.248Z" fill="black"/>
<path d="M180.762 162.952C179.816 163.267 179.921 165.051 180.814 165.365C181.97 165.838 182.811 164.526 182.023 163.529C181.707 163.057 181.077 162.795 180.762 162.952Z" fill="black"/>
<path d="M171.672 169.93C171.672 170.769 171.934 171.031 172.88 170.874C173.511 170.769 174.036 170.349 174.036 169.93C174.036 169.51 173.511 169.09 172.88 168.985C171.934 168.828 171.672 169.09 171.672 169.93Z" fill="black"/>
<path d="M164.894 173.287C164.421 173.812 164.473 174.127 165.104 174.651C166.102 175.491 167.258 174.599 166.785 173.392C166.365 172.343 165.682 172.343 164.894 173.287Z" fill="black"/>
<path d="M212.918 166.047C210.711 168.408 210.028 175.019 211.709 177.117C212.655 178.271 215.177 177.956 215.598 176.645C215.808 175.963 216.648 174.599 217.489 173.55C219.433 171.136 219.959 167.884 218.75 165.995C217.542 164.159 214.652 164.159 212.918 166.047ZM216.333 168.828C216.333 169.982 214.494 172.448 213.969 171.976C213.496 171.504 215.125 167.831 215.755 167.831C216.07 167.831 216.333 168.303 216.333 168.828Z" fill="black"/>
<path d="M229.259 174.861C227.052 177.589 226.947 178.271 228.628 179.845C229.311 180.475 230.152 182.101 230.467 183.36C231.045 185.564 231.413 185.931 233.147 185.668C235.406 185.354 238.927 180.107 238.927 177.012C238.927 173.917 237.35 172.553 233.83 172.553C231.308 172.553 231.045 172.71 229.259 174.861ZM235.774 176.855C235.774 177.537 235.249 178.901 234.671 179.898L233.515 181.734L232.464 179.53C231.203 176.907 231.781 175.701 234.25 175.701C235.459 175.701 235.774 175.91 235.774 176.855Z" fill="black"/>
<path d="M219.276 185.196C216.648 187.557 215.545 190.128 216.07 192.489C216.491 194.43 217.699 195.112 220.642 195.112C222.481 195.112 223.269 194.797 224.372 193.643C226.789 191.125 226.894 187.295 224.582 185.091C222.218 182.835 221.745 182.835 219.276 185.196ZM223.059 188.659C223.321 190.547 222.27 191.964 220.537 191.964C218.592 191.964 218.435 190.652 220.064 188.606C221.377 186.98 222.848 186.98 223.059 188.659Z" fill="black"/>
<path d="M66.7958 197.997C65.5873 199.833 66.5856 200.988 69.1602 200.778C70.9467 200.62 71.0518 200.515 71.2094 198.627C71.367 196.738 71.367 196.686 69.528 196.686C68.1094 196.686 67.4263 197 66.7958 197.997Z" fill="black"/>
<path d="M225.003 198.469C224.057 199.938 224.477 201.407 225.843 201.407C227.052 201.407 228.628 199.099 228.208 197.997C227.787 196.791 225.896 197.053 225.003 198.469Z" fill="black"/>
<path d="M217.804 202.194C215.072 204.03 214.442 206.706 216.753 206.654C218.225 206.601 222.218 202.771 221.798 201.775C221.325 200.515 220.064 200.673 217.804 202.194Z" fill="black"/>
<path d="M56.7601 204.922C55.394 205.394 56.1296 207.178 58.2838 208.752C61.594 211.165 64.8517 210.588 62.4347 208.018C60.9635 206.496 57.5482 204.607 56.7601 204.922Z" fill="black"/>
<path d="M45.7786 210.378C44.1498 212.215 44.465 215.205 46.6193 217.408L48.4057 219.245H53.5024C56.8652 219.245 58.7567 219.035 59.0194 218.615C59.4923 217.881 57.3906 216.097 56.0245 216.097C55.1838 216.097 55.0262 215.677 55.0262 213.526C55.0262 210.169 53.8702 209.277 49.7193 209.277C47.4074 209.277 46.5667 209.487 45.7786 210.378ZM51.8736 213.946C51.8736 215.73 51.2431 216.307 49.7719 215.835C48.5634 215.467 47.46 213.684 47.9328 212.949C48.0905 212.634 49.0888 212.424 50.0871 212.424C51.7159 212.424 51.8736 212.582 51.8736 213.946Z" fill="black"/>
<path d="M64.4839 220.714C61.9618 221.815 59.2296 225.278 59.2296 227.376C59.2296 228.793 61.2788 232.045 62.9601 233.357C64.9568 234.878 67.006 235.613 69.6331 235.613C73.6264 235.613 75.045 233.147 73.9416 227.953C73.4162 225.488 72.9433 224.701 70.684 222.655C68.1094 220.346 66.4805 219.822 64.4839 220.714ZM68.6348 224.911C70.0009 226.012 70.4738 226.957 70.7365 228.74C71.2094 231.836 70.9992 232.36 69.1602 232.36C66.3229 232.36 62.3822 229.37 62.3822 227.271C62.3822 226.327 65.2195 223.442 66.1653 223.442C66.5856 223.442 67.689 224.124 68.6348 224.911Z" fill="black"/>
<path d="M208.767 223.442C206.928 224.019 200.307 229.003 195.946 233.095C192.111 236.767 191.69 236.61 191.165 231.731C190.955 229.894 190.482 227.848 190.114 227.166C189.484 226.012 189.168 225.96 186.121 226.17C179.868 226.694 173.668 230.944 167.731 238.761C165.787 241.384 164.473 242.328 162.949 242.328C162.161 242.328 162.109 241.856 162.424 237.397C162.739 232.675 162.687 232.413 161.583 231.626C160.007 230.524 158.273 230.576 154.017 231.888C149.393 233.305 142.615 236.715 137.203 240.335L133 243.22L129.952 240.387C126.537 237.187 122.281 234.878 117.762 233.724C111.983 232.308 108.935 232.413 107.779 234.196C106.991 235.456 106.991 235.613 108.305 238.131C109.04 239.548 109.671 241.384 109.671 242.118C109.671 243.535 109.671 243.535 106.728 243.168C103.523 242.8 101.474 241.908 98.6368 239.653C96.0622 237.607 90.8605 234.983 89.3893 234.983C87.8655 234.983 86.3943 237.029 86.9197 238.446C87.0774 238.971 88.1282 240.807 89.1791 242.59C91.491 246.315 94.4334 252.086 94.4334 252.768C94.4334 254.762 73.9942 272.389 65.5348 277.74C61.1737 280.521 60.8059 280.993 60.8059 284.298C60.8059 287.708 61.3313 288.338 67.006 292.115C75.7806 297.991 87.6028 302.45 100.949 305.021C109.303 306.647 127.798 307.277 137.571 306.333C147.397 305.388 169.57 300.929 177.977 298.201C180.131 297.519 185.228 296.102 189.273 295.053C197.207 293.007 204.931 290.122 213.969 285.925C221.64 282.305 247.964 268.769 250.118 267.248C251.117 266.618 252.483 265.936 253.271 265.726C255.215 265.254 256.528 263.208 255.793 261.844C252.903 256.493 229.521 245.266 215.44 242.486C212.918 242.013 210.133 241.121 209.345 240.597C207.138 239.075 207.664 237.502 213.075 229.003C214.599 226.642 214.652 226.379 213.969 225.015C212.865 222.917 211.709 222.602 208.767 223.442ZM185.543 235.403C186.594 238.971 188.275 242.118 189.641 243.063C191.848 244.637 193.057 244.112 197.575 239.81L201.884 235.77L202.147 239.023C202.357 241.489 202.724 242.59 203.723 243.64C205.982 246.105 208.977 247.627 212.34 248.151C219.643 249.148 231.991 253.817 242.5 259.483C246.125 261.425 246.755 262.002 246.178 262.526C245.81 262.893 237.35 267.353 227.367 272.389C208.767 281.832 199.362 285.977 191.27 288.181C188.748 288.915 183.599 290.331 179.816 291.381C167.888 294.791 163.79 295.735 153.544 297.676C140.461 300.09 136.31 300.562 126.485 300.562C112.876 300.614 104.627 299.827 96.2724 297.676C83.4519 294.371 77.9349 292.063 69.9484 286.712L66.5856 284.456L69.3178 282.619C74.9399 278.895 88.5486 267.668 93.9605 262.316C100.476 255.864 101.422 253.975 100.055 249.935L99.2673 247.732L101.737 248.466C104.942 249.463 110.039 249.568 112.14 248.676C114.4 247.732 115.503 245.948 115.818 242.538C115.976 240.964 116.396 239.705 116.712 239.705C118.656 239.705 123.49 242.853 127.168 246.368C130.951 250.04 131.371 250.302 132.947 249.988C133.841 249.83 135.575 248.938 136.73 248.099C141.827 244.322 151.232 239.023 154.7 237.921C155.646 237.606 155.804 237.869 156.066 241.122C156.434 245.581 156.749 246.368 158.483 247.26C160.795 248.466 163.055 248.729 165.471 248.099C167.836 247.469 170.936 244.637 175.822 238.708C178.239 235.77 182.233 232.885 183.862 232.885C184.492 232.885 184.965 233.619 185.543 235.403Z" fill="black"/>
<path d="M173.353 253.135C172.722 253.555 172.197 254.395 172.197 254.972C172.197 256.336 174.246 260.375 177.661 265.622C179.185 267.982 180.972 270.868 181.602 272.022C183.178 274.855 184.965 275.747 186.699 274.593C188.906 273.176 188.118 270.343 183.756 263.838C182.706 262.264 180.814 259.221 179.606 257.123C178.187 254.709 176.873 253.083 176.085 252.768C174.456 252.191 174.772 252.139 173.353 253.135Z" fill="black"/>
<path d="M111.878 253.66C109.618 255.234 109.881 255.864 118.446 269.032C121.861 274.225 126.38 281.255 128.534 284.561C132.58 290.909 133.998 292.378 136.047 292.063C137.519 291.853 139.042 289.335 138.307 288.285C137.256 286.816 131.319 277.74 124.33 266.828C115.03 252.401 114.505 251.824 111.878 253.66Z" fill="black"/>
<path d="M145.295 255.496C143.771 256.388 143.246 257.805 143.876 259.431C144.559 261.267 153.019 273.386 157.065 278.37C159.639 281.518 160.427 282.2 161.688 282.2C163.527 282.2 165.051 280.259 164.473 278.737C164.316 278.213 162.424 275.485 160.375 272.756C158.326 270.028 154.805 265.097 152.546 261.844C149.131 256.913 147.292 254.867 146.346 254.919C146.241 254.919 145.768 255.181 145.295 255.496Z" fill="black"/>
<path d="M52.9244 226.012C52.2939 227.219 52.6617 228.478 53.7651 228.898C54.816 229.317 55.9194 228.74 56.2346 227.691C56.8126 225.383 54.0278 223.966 52.9244 226.012Z" fill="black"/>
<path d="M236.037 279.157C235.459 279.472 233.567 281.098 231.833 282.724C230.099 284.403 227.262 286.659 225.528 287.708C217.962 292.535 194.475 302.765 181.234 306.962C173.826 309.323 160.427 311.946 152.231 312.628C140.829 313.572 118.551 314.359 110.459 314.045C97.008 313.52 89.7045 311.841 81.7705 307.539C78.8281 305.965 77.1467 306.123 76.0959 308.011C75.3603 309.323 75.3603 309.533 76.4111 310.897C77.0417 311.684 79.7739 315.409 82.4536 319.133C90.3876 330.151 92.2791 331.672 99.9504 333.351C103.418 334.138 105.625 334.243 113.349 333.98C131.213 333.351 152.02 332.039 157.748 331.2C179.816 328 202.514 321.966 213.548 316.353C214.652 315.828 218.382 314.254 221.85 312.89C228.943 310.057 234.776 307.277 235.616 306.228C236.877 304.759 240.503 287.341 240.503 282.934C240.503 280.678 240.293 279.996 239.347 279.367C237.981 278.37 237.455 278.37 236.037 279.157ZM232.096 296.732L230.888 302.188L228.733 303.29C227.525 303.919 223.531 305.651 219.748 307.172C216.018 308.641 210.501 311.002 207.558 312.313C202.567 314.569 190.429 318.399 180.236 320.97C174.666 322.386 155.331 325.586 149.866 325.954C147.554 326.163 140.934 326.531 135.154 326.793C129.374 327.055 120.968 327.58 116.501 327.895C103.628 328.892 97.2182 327.58 93.2774 323.226C91.0181 320.707 89.4944 318.451 89.8096 318.137C89.9147 317.979 92.0164 318.242 94.4859 318.661C106.15 320.655 121.493 320.707 149.604 318.924C157.59 318.399 171.146 316.143 179.553 313.887C191.848 310.582 223.216 296.942 231.045 291.486C232.043 290.751 232.989 290.436 233.094 290.699C233.199 291.013 232.726 293.689 232.096 296.732Z" fill="black"/>
</svg>
