<svg width="256" height="336" viewBox="0 0 256 336" fill="none" xmlns="http://www.w3.org/2000/svg">
<path d="M141.459 1.2634C137.676 2.10281 136.258 3.83407 137.361 6.29982C137.886 7.40153 138.149 7.454 145.978 7.454C152.598 7.454 154.437 7.61138 156.224 8.39832C158.431 9.34265 158.431 9.34265 157.643 10.8641C156.487 13.2249 157.432 14.2217 163.212 17.1596C168.572 19.8352 171.829 22.6682 170.516 23.5076C170.148 23.7699 168.782 23.9797 167.468 23.9797C164.263 23.9797 162.634 25.1339 162.844 27.2849C163.055 29.4358 165.314 30.9573 169.465 31.7967C171.199 32.1114 173.405 32.9508 174.351 33.5804C175.98 34.6821 176.138 34.9969 176.138 37.3577V39.9808L173.3 39.8759C171.724 39.771 169.307 39.3513 167.941 38.9316C165.471 38.0922 160.165 34.7346 158.378 32.8459C157.222 31.6393 155.226 31.5343 154.122 32.6885C152.336 34.4198 153.702 37.0954 158.063 40.2956C159.639 41.4498 161.321 42.7089 161.793 43.1286C162.634 43.8106 162.687 44.8599 162.424 54.513C162.109 65.0055 162.109 65.2154 163.475 69.4648C164.631 73.0848 165.366 74.3439 167.783 76.9145C171.409 80.8492 171.987 83.0527 169.78 84.7839C168.992 85.4135 167.731 86.043 166.995 86.2004C163.16 86.9874 161.846 88.9285 163.475 91.3942C164.578 93.073 164.526 94.6994 163.265 96.7979C161.899 99.0538 161.058 99.3161 158.378 98.2668C153.597 96.4306 152.231 97.4274 152.231 102.674C152.231 107.5 152.02 107.92 149.498 107.92C146.871 107.92 145.82 107.343 142.405 104.195C140.934 102.779 139.463 101.624 139.253 101.624C138.097 101.624 136.468 103.461 135.942 105.244C135.259 107.763 133.525 110.018 132.264 110.018C130.846 110.018 128.271 107.658 125.907 104.195C123.857 101.152 122.071 99.5259 120.863 99.5259C120.495 99.5259 119.234 100.365 118.078 101.415C115.976 103.303 115.871 103.356 113.874 102.726C111.247 101.939 110.984 101.047 111.405 94.2797C111.72 89.6105 111.615 89.0859 110.669 88.194C109.723 87.3546 109.303 87.3021 105.94 87.8792C101.527 88.6662 98.269 88.6662 97.8487 87.9842C97.2707 87.0923 99.3724 83.1576 103.313 77.7539C105.415 74.8685 107.622 71.6158 108.2 70.4616C109.934 67.0516 113.769 56.9787 114.662 53.2539C115.661 49.4241 116.554 48.3224 119.549 47.1682C125.013 45.0697 126.905 45.9091 128.586 50.9455C129.217 52.8342 129.532 54.6704 129.374 54.9851C129.164 55.2999 128.534 57.346 128.008 59.4969C127.43 61.7004 126.222 65.2678 125.224 67.4713C121.808 75.1308 120.6 81.6886 121.703 87.0398C122.439 90.3974 123.595 92.1287 126.642 94.3321C129.48 96.3782 132.264 96.3782 135.575 94.2797C137.834 92.8632 138.097 92.8107 139.463 93.4927C140.251 93.9124 141.67 94.2797 142.51 94.2797C145.926 94.2272 150.444 91.0794 151.653 87.8268C152.441 85.7283 152.388 78.5933 151.495 73.2946C151.075 70.8289 150.602 65.8974 150.392 62.3824C150.234 58.8149 149.971 55.6147 149.866 55.2999C149.709 54.9327 150.759 54.1457 152.178 53.5687C154.227 52.6768 154.91 51.9948 155.909 49.9487C157.38 46.9059 156.96 45.8042 154.175 45.5943C152.441 45.4369 152.178 45.5943 151.495 47.2731C151.075 48.3224 149.919 49.634 148.973 50.211C147.502 51.1554 146.661 51.2603 143.561 51.0504C141.564 50.8931 139.042 50.6307 137.992 50.4209C135.68 50.0537 134.944 51.2078 136.205 53.149C137.256 54.7753 137.203 54.9327 135.575 54.9327C132.737 54.9327 132.369 54.1982 133.788 51.5226C136.363 46.696 139.358 45.5419 145.085 47.2731C149.288 48.5322 149.866 47.7978 148.763 42.8138C147.029 34.6296 148.08 32.6361 155.015 31.1146C156.644 30.7474 157.59 28.9112 156.907 27.5472C156.644 27.0226 155.541 26.393 154.437 26.0782C148.605 24.5043 147.659 21.9861 150.444 15.6906C151.863 12.5429 152.02 10.8641 151.075 9.91974C150.129 8.97541 148.92 9.1328 145.768 10.5493C144.192 11.2313 141.722 11.9658 140.251 12.1756C137.992 12.4904 137.466 12.3855 136.52 11.4412C135.89 10.8116 135.417 9.86728 135.417 9.29019C135.417 8.76556 135.154 7.13922 134.839 5.67027C133.998 1.57818 132.002 1.52572 129.952 5.56534C127.115 11.1264 123.963 12.5953 118.918 10.8116C117.237 10.2345 115.451 9.91974 114.873 10.0771C113.506 10.5493 113.086 12.6478 113.822 15.6906C115.03 21.0943 114.19 22.9829 109.513 24.9765C107.306 25.9208 103.891 29.3309 103.891 30.59C103.891 31.6393 105.205 32.3737 108.095 32.8984C109.671 33.2131 110.984 33.5279 111.142 33.6328C111.247 33.7378 110.932 34.4722 110.459 35.2067C109.723 36.256 109.513 38.2496 109.303 44.5451L108.988 52.5719L106.15 59.9166C102.84 68.5205 97.2182 77.4916 95.169 77.4916C94.8012 77.4916 90.7554 74.0291 86.2367 69.7271C81.7705 65.4777 77.0942 61.3856 75.8857 60.5462C71.6823 57.7657 67.8466 58.9723 64.1161 64.3235C55.9719 75.9702 45.043 87.0398 34.2717 94.5944C28.7021 98.5291 19.2444 104.248 12.2036 107.867C1.9052 113.166 -0.616865 115.527 0.118737 118.99C0.854339 122.242 4.00692 123.292 11.3104 122.714C14.6731 122.452 16.1443 122.505 16.1443 122.872C16.1443 123.869 18.8766 126.177 21.3986 127.279C24.3411 128.643 29.6479 128.695 35.3225 127.541L39.3683 126.702L41.0497 128.328C43.5718 130.741 47.1447 131.318 55.0787 130.531C59.6499 130.059 61.594 130.059 62.1195 130.479C62.4873 130.794 66.3754 131.423 70.7365 131.948L78.723 132.787L79.4061 135.201C82.9265 147.057 94.013 165.629 102.578 174.075C105.047 176.489 107.306 178.587 107.622 178.692C107.937 178.797 108.62 179.846 109.145 181.053C110.249 183.624 115.293 190.076 118.918 193.487C120.337 194.798 124.33 198.785 127.746 202.248L134.051 208.648L131.161 211.534C129.585 213.108 127.063 216.413 125.591 218.931C123.069 223.075 122.807 223.758 122.807 226.59C122.807 229.161 123.069 230.105 124.33 231.889C126.642 235.247 128.113 236.349 130.741 236.716C133.105 237.083 133.105 237.083 136.363 233.83C138.097 232.047 140.566 228.899 141.775 226.853C146.241 219.298 153.754 212.845 165.892 206.13C168.939 204.451 171.461 202.72 171.566 202.248C171.882 200.621 168.414 198.68 164.631 198.313C161.636 198.051 161.163 197.841 161.478 197.159C162.529 194.746 163.79 190.234 164.053 187.611L164.368 184.673L168.204 183.361C170.305 182.679 174.719 180.581 178.029 178.692C183.126 175.859 185.017 174.39 190.64 168.934L197.207 162.534L199.887 162.848C203.513 163.268 204.931 162.796 207.453 160.54C210.028 158.232 211.394 155.713 212.34 151.359C213.969 144.224 214.862 120.983 213.706 116.734C213.391 115.632 212.392 113.953 211.447 112.956C209.713 111.173 209.713 111.12 210.658 109.914C211.552 108.759 213.811 102.411 213.916 100.628C213.969 100.155 215.23 98.6341 216.701 97.2176C220.011 94.1747 221.955 90.4499 222.743 85.7283C223.216 82.8953 223.584 82.0559 224.687 81.3214C227.209 79.6951 231.203 75.6554 233.252 72.6126C235.827 68.8353 236.825 66.0548 236.825 62.6447C236.825 60.7036 237.14 59.6019 238.086 58.3952C239.925 55.9819 241.816 51.9948 243.077 47.9027C244.444 43.4434 244.654 32.9508 243.393 29.9605C242.657 28.1767 242.71 27.9669 244.023 25.3962C245.337 22.878 245.442 22.2485 245.337 16.9497C245.232 10.1821 244.391 7.97862 241.554 6.56213C240.555 6.03751 238.664 5.6178 237.35 5.6178C232.884 5.67027 231.36 6.71952 218.803 18.5761C213.443 23.6125 197.68 35.0493 188.59 40.453C184.072 43.181 180.026 48.6372 178.555 54.1457C178.029 56.1918 176.506 67.4188 176.138 72.2454C176.033 73.5569 175.928 74.7636 175.928 74.9734C175.822 75.6554 174.089 74.7636 172.302 73.1372C171.409 72.2454 170.095 70.1993 169.465 68.6254C168.414 66.0023 168.256 64.7957 168.309 57.241C168.361 52.6243 168.519 48.2175 168.729 47.4305C169.044 46.014 169.15 46.014 173.143 46.0665C180.709 46.2239 183.389 43.2335 182.443 35.6789C182.128 33.2131 181.76 32.3737 179.816 30.3277C177.819 28.1767 177.556 27.5472 177.241 24.5043C176.716 19.8352 175.665 17.9465 172.092 15.166C169.675 13.2774 169.044 12.4904 169.044 11.3362C169.044 6.50967 156.802 0.79124 146.766 0.948628C144.402 1.00109 142.037 1.10602 141.459 1.2634ZM239.347 15.848C239.452 18.1564 239.242 20.8844 238.979 21.9337C237.718 26.1307 231.045 35.0493 221.062 45.7517C218.435 48.6372 216.018 51.3652 215.755 51.8374C215.072 53.2014 217.331 55.7196 218.803 55.2475C220.116 54.8278 230.677 44.0729 234.986 38.7217L238.138 34.787L238.296 38.6693C238.506 43.9155 236.667 49.9487 233.515 54.1982C229.364 59.8117 219.696 66.6843 210.974 70.2518C206.665 72.0355 205.509 73.0848 206.087 74.921C206.56 76.4424 208.504 77.0195 210.921 76.3374C213.653 75.603 220.484 72.1404 225.423 68.9402C227.682 67.5237 229.626 66.422 229.732 66.5794C230.152 66.9991 226.474 71.983 224.267 73.9766C221.009 76.9145 216.859 79.3803 209.608 82.8428C206.087 84.5216 202.724 86.3578 202.146 86.9349C200.885 88.194 200.78 89.7154 201.936 90.8171C202.987 91.8664 204.196 91.6041 210.764 88.6662C213.601 87.4071 216.07 86.5152 216.228 86.6726C216.386 86.83 216.018 87.9841 215.387 89.2957C212.603 94.9617 199.887 101.624 191.638 101.624C187.329 101.624 184.86 102.464 184.492 104.038C183.914 106.399 185.438 107.395 189.746 107.395C194.002 107.395 202.252 105.821 204.669 104.562C206.665 103.513 206.875 103.513 206.875 104.457C206.875 105.717 202.409 109.336 199.204 110.596C196.682 111.54 194.896 111.802 189.799 111.96C186.331 112.012 183.336 112.117 183.126 112.117C182.443 112.117 181.602 114.268 181.917 115.212C182.233 116.262 184.912 117.678 187.75 118.203C189.589 118.517 189.641 118.622 188.695 119.304C188.012 119.829 186.962 119.986 185.438 119.777C182.811 119.409 174.877 117.206 173.353 116.366C171.356 115.317 169.097 115.632 168.414 117.101C167.31 119.514 169.097 121.036 175.402 123.082C178.397 124.078 180.919 124.918 181.024 124.97C181.077 125.023 179.133 127.069 176.663 129.482L172.144 133.889L167.573 134.886C161.741 136.197 145.295 136.355 134.786 135.201L127.588 134.466L127.273 132.577C127.115 131.581 126.747 130.374 126.485 129.954C125.959 129.167 121.756 128.485 116.396 128.433L112.823 128.38V124.498C112.823 119.881 113.717 113.061 114.557 110.91C115.03 109.756 115.871 109.179 118.078 108.445L120.968 107.448L122.229 109.074C123.857 111.068 127.273 114.268 128.744 115.107C130.32 115.999 134.103 115.947 135.942 115.002C136.73 114.583 138.044 113.481 138.78 112.537L140.093 110.858L143.141 112.222C146.871 113.953 149.236 114.32 151.915 113.743C154.7 113.061 156.854 110.858 157.8 107.605L158.588 104.93L161.216 104.615C162.897 104.405 164.578 103.775 165.629 102.988C167.888 101.257 170.095 96.7979 170.095 93.9649C170.095 91.9188 170.305 91.5516 172.355 90.1876C173.563 89.2957 175.139 87.6169 175.875 86.4103C176.611 85.2036 177.819 83.4199 178.66 82.4756C180.867 79.8524 181.602 77.0195 182.758 66.9991C183.336 61.9627 184.124 56.6115 184.545 55.1425C185.49 51.9423 187.855 48.5322 190.482 46.7485C202.041 38.8266 214.967 29.8031 216.859 28.2817C218.172 27.2324 222.323 23.5076 226.054 20.045C234.933 11.8084 235.616 11.2838 237.56 11.4936L239.189 11.651L239.347 15.848ZM133.21 15.5857C136.258 15.848 138.359 16.3202 138.727 16.7399C139.095 17.1596 140.198 18.1039 141.302 18.8909C142.931 20.0975 143.246 20.6746 143.561 23.0354C143.771 24.5568 144.139 26.3405 144.402 26.9701C144.664 27.6521 144.612 28.2817 144.349 28.439C144.034 28.6489 143.824 29.7506 143.824 30.9573C143.771 32.1639 143.456 34.3149 143.088 35.6789C142.51 37.9872 142.247 38.302 139.62 39.5087C135.627 41.3449 132.264 42.0269 129.952 41.3973C128.639 41.0301 128.061 41.0301 127.851 41.4498C127.693 41.8695 127.325 41.7646 126.852 41.135C126.432 40.6628 125.644 40.2431 125.066 40.2431C123.437 40.2431 121.44 38.4069 120.442 35.9412C118.498 31.0622 121.125 20.7795 125.066 17.6842C125.854 17.0547 126.485 16.2153 126.485 15.7956C126.485 14.9562 126.695 14.9562 133.21 15.5857ZM115.818 41.9219C115.713 42.604 115.608 42.1843 115.608 41.0301C115.556 39.8759 115.661 39.3513 115.818 39.8234C115.923 40.3481 115.923 41.2924 115.818 41.9219ZM146.451 57.0837C146.451 58.7625 145.453 60.5986 144.402 60.9659C142.668 61.4905 141.249 60.756 139.883 58.5526C137.781 55.2999 137.992 55.0901 142.51 55.6672C145.715 56.0869 146.451 56.3492 146.451 57.0837ZM139.305 64.9006C140.408 65.3203 141.617 65.3203 143.403 64.9006C144.822 64.6383 146.188 64.376 146.451 64.376C147.134 64.376 147.134 67.3663 146.398 68.6779C145.663 70.0419 142.825 71.1961 139.988 71.1961C136.468 71.1961 135.837 70.4616 135.522 65.8974L135.259 62.0151L136.52 63.1693C137.203 63.7989 138.464 64.5858 139.305 64.9006ZM79.7214 71.8781C83.3468 75.3931 87.6553 79.5377 89.3367 81.0066C90.9655 82.528 92.3317 83.997 92.3317 84.2593C92.3317 84.5216 90.6503 86.6726 88.6011 89.0859C81.8756 97.0602 79.9315 102.359 79.1434 115.107C78.4078 127.174 78.723 126.282 75.0976 126.229C69.8958 126.177 69.7382 125.862 73.3637 122.662C77.0942 119.462 78.4603 117.311 77.6722 115.842C76.4111 113.533 74.467 114.006 70.2111 117.626C66.8483 120.511 62.4873 122.872 58.3364 123.921C55.1838 124.76 46.5667 125.023 47.46 124.288C47.7227 124.026 50.1922 122.977 52.977 121.875C58.6516 119.724 67.0585 114.95 69.5806 112.537C72.0501 110.176 72.6806 108.235 71.6297 106.608C70.4212 104.772 69.0026 104.982 66.428 107.29C61.5415 111.697 56.4448 114.478 46.6193 118.045C40.1565 120.354 30.9089 122.61 27.7563 122.61C25.7597 122.61 21.7139 121.036 22.2919 120.459C22.502 120.249 26.3902 119.095 30.8564 117.888C43.5718 114.478 51.2431 111.225 60.0703 105.559C66.0076 101.729 67.2687 99.4735 64.3788 97.8996C62.9601 97.1651 61.8042 97.6373 55.6041 101.467C48.2481 106.084 41.2599 108.917 27.1784 112.956C14.8833 116.471 8.05273 117.73 10.1019 116.052C10.6799 115.58 14.3579 113.481 18.2461 111.382C27.336 106.451 36.2158 100.837 41.8904 96.4306C50.4549 89.7679 62.4873 77.3867 67.111 70.4092C69.5806 66.6843 70.8416 65.4252 72.0501 65.4252C72.6806 65.4252 75.623 67.891 79.7214 71.8781ZM132.947 71.4584C133.473 72.1929 134.891 73.2946 136.047 73.8717C138.254 74.9734 141.144 75.0259 145.453 74.0291C146.819 73.7143 146.819 73.7668 147.187 77.3342C147.765 83.5773 147.292 85.2561 144.297 88.194C142.668 89.7679 141.459 90.5548 141.144 90.24C140.881 89.9777 140.461 87.4595 140.198 84.5741C139.831 81.164 139.41 79.1704 138.885 78.5933C137.414 77.1768 136.73 78.6983 136.52 83.8921C136.363 88.6137 136.363 88.6137 134.314 90.6597C132.107 92.8632 131.003 93.1255 129.217 91.8664C127.273 90.5024 126.38 88.0366 126.064 83.2101C125.802 78.331 126.432 75.498 129.007 70.4092C130.425 67.5237 130.163 67.4713 132.947 71.4584ZM100.528 94.0174L104.732 94.3846L105.31 98.7915C105.73 102.411 106.15 103.67 107.517 105.559C109.145 107.867 109.408 108.707 108.83 110.228C108.567 110.91 108.41 110.963 107.359 110.281C106.15 109.441 105.467 109.704 105.467 110.91C105.467 111.278 106.045 111.592 106.834 111.592C108.2 111.592 108.2 111.645 107.884 114.583C107.727 116.262 107.464 119.881 107.254 122.662L106.939 127.698L104.522 127.279C101.054 126.597 94.6436 123.711 89.4943 120.459L85.0282 117.626L84.9756 113.376C84.9756 107.238 87.4452 99.8407 91.1232 94.9092C92.2791 93.3353 92.6469 93.178 94.3808 93.4403C95.4317 93.5977 98.1639 93.86 100.528 94.0174ZM208.294 129.902C207.926 140.552 207.243 147.949 206.297 151.779C205.404 155.294 201.463 158.546 200.307 156.763C199.992 156.186 200.991 151.674 201.779 150.152C202.619 148.631 202.935 134.466 202.199 132.053C201.884 130.951 200.728 129.272 199.572 128.223C197.891 126.754 197.365 125.81 196.892 123.396C196.209 120.039 196.419 118.937 197.838 118.937C199.467 118.937 200.255 120.354 200.623 123.974C201.096 128.905 203.04 130.636 205.299 128.38C206.087 127.593 206.35 126.649 206.35 124.236C206.35 122.557 206.613 120.406 206.928 119.462C207.506 117.94 207.611 117.888 208.084 118.727C208.399 119.304 208.504 123.344 208.294 129.902ZM88.0231 126.282C95.3792 131.213 105.835 134.151 116.029 134.151C118.183 134.151 120.232 134.361 120.6 134.571C121.125 134.938 121.178 139.345 120.915 156.343C120.705 168.042 120.39 177.905 120.179 178.22C119.339 179.584 113.717 176.174 107.727 170.665C103.156 166.416 99.6351 161.747 94.3283 152.828C87.6553 141.706 83.557 130.636 84.2926 125.967C84.4502 124.97 84.6604 124.183 84.7129 124.183C84.818 124.183 86.2892 125.128 88.0231 126.282ZM187.067 131.108C183.441 134.833 182.706 136.04 182.706 138.243C182.706 142.021 187.119 142.493 188.275 138.873C188.59 137.876 190.009 136.04 191.375 134.833C193.95 132.525 195.999 131.948 196.577 133.417C196.735 133.889 196.892 137.037 196.892 140.447C196.892 145.641 196.682 147.372 195.579 150.887C194.16 155.399 193.582 156.133 192.426 155.136C192.006 154.822 191.428 154.664 191.112 154.874C190.219 155.451 190.535 156.815 191.638 157.077C192.216 157.235 192.689 157.602 192.689 157.917C192.689 158.861 182.495 168.829 179.29 170.928C174.719 173.97 165.997 178.115 163.317 178.535L161.005 178.902L161.268 174.652C161.531 171.347 162.319 168.2 165.051 160.015C168.887 148.683 170.305 146.06 177.819 136.774C180.499 133.469 182.39 131.738 185.123 130.112C187.119 128.905 189.116 127.856 189.536 127.856C189.957 127.856 188.853 129.325 187.067 131.108ZM144.192 141.968C149.026 142.545 164.105 142.021 165.997 141.234C166.68 140.971 166.47 141.653 165.104 143.857C164.105 145.536 162.949 147.844 162.529 149.051C158.746 159.596 157.853 162.324 156.749 166.731C156.014 169.459 155.278 173.446 155.121 175.492L154.7 179.217L152.336 179.584C149.656 180.004 148.027 181.315 148.027 183.151C148.027 185.197 149.131 185.67 153.754 185.46L158.01 185.302V186.929C158.01 190.496 156.539 193.801 153.912 196.005C150.287 199.1 140.776 203.927 138.99 203.559C137.992 203.35 134.629 200.359 128.586 194.326C123.7 189.394 119.812 185.25 119.864 185.145C119.969 185.04 123.069 185.197 126.747 185.512C130.373 185.775 133.683 185.932 134.051 185.775C134.419 185.617 134.997 184.935 135.364 184.201C136.468 181.735 134.314 179.794 130.53 179.794C129.585 179.794 128.271 179.636 127.588 179.427L126.327 179.112L126.695 161.222C126.852 151.359 127.168 142.755 127.378 142.073C127.693 140.814 127.693 140.814 133.525 141.129C136.73 141.286 141.512 141.706 144.192 141.968ZM162.582 203.559C162.687 203.717 159.902 205.553 156.434 207.651C147.922 212.845 145.085 215.468 140.093 222.866C133.893 232.099 131.739 234.25 131.739 231.155C131.739 229.738 132.79 227.745 137.046 221.187C140.986 215.206 141.407 213.895 139.463 213.895C136.625 213.895 132.107 218.354 129.48 223.705C127.798 227.115 127.01 227.797 127.01 225.961C127.01 224.335 128.429 221.921 131.897 217.567C136.888 211.324 137.992 210.327 140.093 209.96C141.144 209.802 145.085 208.176 148.815 206.34C155.278 203.245 155.804 203.087 159.009 203.192C160.848 203.297 162.424 203.454 162.582 203.559Z" fill="#688CDB"/>
<path d="M132.527 18.6285C131.949 18.7334 131.108 18.9433 130.688 19.1007C130.268 19.2581 129.217 19.4679 128.324 19.5728C126.38 19.8352 122.544 23.9272 122.071 26.2356C121.23 30.3277 122.491 34.5247 124.803 35.3641C125.276 35.574 126.222 36.256 126.905 36.938C127.851 37.8823 128.691 38.1446 130.951 38.1446C132.527 38.1446 133.946 37.8823 134.103 37.5675C134.314 37.3052 134.734 37.1478 135.049 37.2528C135.89 37.5675 138.097 36.4134 139.147 35.2067C140.724 33.3181 141.932 26.9176 141.302 23.9797C140.986 22.5632 140.619 22.1435 139.725 22.0911C138.464 22.0386 137.414 21.3566 138.569 21.3566C139.095 21.3566 139.095 21.1992 138.569 20.5696C138.202 20.1499 137.519 19.7827 137.046 19.7827C136.573 19.7827 135.627 19.4679 134.891 19.1007C134.156 18.7334 133.105 18.5236 132.527 18.6285ZM137.203 22.6157C138.464 23.4026 138.569 23.8223 138.569 26.9176C138.569 32.8459 136.625 35.5215 132.369 35.5215C126.222 35.5215 122.912 31.1671 125.118 25.9208C126.485 22.6681 129.164 21.2517 133.42 21.5664C134.786 21.6714 136.468 22.0911 137.203 22.6157Z" fill="#688CDB"/>
<path d="M129.952 26.3405C129.48 26.8127 129.112 27.3898 129.112 27.6521C129.112 28.2817 131.739 31.3245 132.317 31.3245C133.052 31.3245 134.891 29.3309 134.891 28.544C134.891 26.393 131.476 24.8716 129.952 26.3405Z" fill="#688CDB"/>
<path d="M70.7891 68.8878C70.2636 69.4649 70.2636 69.7796 70.7891 70.3567C71.5772 71.3535 72.8908 70.8813 72.8908 69.6222C72.8908 68.3631 71.5772 67.891 70.7891 68.8878Z" fill="#688CDB"/>
<path d="M80.2993 75.3407C79.4061 75.9178 79.7739 77.754 80.7722 77.754C81.6654 77.754 82.1383 76.0227 81.4553 75.3407C81.2451 75.1308 80.7197 75.1308 80.2993 75.3407Z" fill="#688CDB"/>
<path d="M87.0248 84.1019C86.4994 84.7315 86.5519 85.0462 87.1825 85.7283C88.1808 86.6726 89.1791 86.2529 89.1791 84.8364C89.1791 83.5773 87.8655 83.1051 87.0248 84.1019Z" fill="#688CDB"/>
<path d="M103.786 118.727C103.208 119.252 103.944 120.511 104.784 120.511C105.205 120.511 105.467 120.144 105.362 119.619C105.205 118.675 104.311 118.203 103.786 118.727Z" fill="#688CDB"/>
<path d="M117.552 138.663C116.974 139.293 116.974 139.607 117.657 140.237C118.393 140.971 118.551 140.971 119.339 140.185C120.022 139.502 120.074 139.135 119.601 138.558C118.813 137.614 118.34 137.614 117.552 138.663Z" fill="#688CDB"/>
<path d="M116.712 148.579C116.029 150.257 117.92 151.097 119.181 149.575C119.707 148.893 119.707 148.683 119.076 148.264C117.973 147.582 117.027 147.687 116.712 148.579Z" fill="#688CDB"/>
<path d="M116.501 160.645C115.976 161.274 115.976 161.589 116.501 162.166C117.342 163.216 118.708 162.586 118.498 161.274C118.288 159.91 117.395 159.596 116.501 160.645Z" fill="#688CDB"/>
<path d="M115.608 170.193C114.715 170.508 114.768 171.662 115.608 172.397C116.134 172.816 116.501 172.764 116.922 172.344C118.183 171.085 117.237 169.616 115.608 170.193Z" fill="#688CDB"/>
<path d="M180.762 163.898C179.816 164.212 179.921 165.996 180.814 166.311C181.97 166.783 182.811 165.471 182.023 164.475C181.707 164.003 181.077 163.74 180.762 163.898Z" fill="#688CDB"/>
<path d="M171.672 170.875C171.672 171.715 171.934 171.977 172.88 171.819C173.511 171.715 174.036 171.295 174.036 170.875C174.036 170.455 173.511 170.036 172.88 169.931C171.934 169.773 171.672 170.036 171.672 170.875Z" fill="#688CDB"/>
<path d="M164.894 174.233C164.421 174.757 164.473 175.072 165.104 175.597C166.102 176.436 167.258 175.544 166.785 174.338C166.365 173.288 165.682 173.288 164.894 174.233Z" fill="#688CDB"/>
<path d="M212.918 166.993C210.711 169.354 210.028 175.964 211.709 178.063C212.655 179.217 215.177 178.902 215.598 177.59C215.808 176.908 216.648 175.544 217.489 174.495C219.433 172.082 219.959 168.829 218.75 166.94C217.542 165.104 214.652 165.104 212.918 166.993ZM216.333 169.773C216.333 170.928 214.494 173.393 213.969 172.921C213.496 172.449 215.125 168.777 215.755 168.777C216.07 168.777 216.333 169.249 216.333 169.773Z" fill="#688CDB"/>
<path d="M229.259 175.807C227.052 178.535 226.947 179.217 228.628 180.791C229.311 181.42 230.152 183.046 230.467 184.306C231.045 186.509 231.413 186.876 233.147 186.614C235.406 186.299 238.927 181.053 238.927 177.958C238.927 174.862 237.35 173.498 233.83 173.498C231.308 173.498 231.045 173.656 229.259 175.807ZM235.774 177.8C235.774 178.482 235.249 179.846 234.671 180.843L233.515 182.679L232.464 180.476C231.203 177.853 231.781 176.646 234.25 176.646C235.459 176.646 235.774 176.856 235.774 177.8Z" fill="#688CDB"/>
<path d="M219.276 186.142C216.648 188.503 215.545 191.073 216.07 193.434C216.491 195.375 217.699 196.057 220.642 196.057C222.481 196.057 223.269 195.742 224.372 194.588C226.789 192.07 226.894 188.24 224.582 186.037C222.218 183.781 221.745 183.781 219.276 186.142ZM223.059 189.604C223.321 191.493 222.27 192.909 220.537 192.909C218.592 192.909 218.435 191.598 220.064 189.552C221.377 187.925 222.848 187.925 223.059 189.604Z" fill="#688CDB"/>
<path d="M66.7958 198.943C65.5873 200.779 66.5856 201.933 69.1602 201.723C70.9467 201.566 71.0518 201.461 71.2094 199.572C71.367 197.684 71.367 197.631 69.528 197.631C68.1094 197.631 67.4263 197.946 66.7958 198.943Z" fill="#688CDB"/>
<path d="M225.003 199.415C224.057 200.884 224.477 202.353 225.843 202.353C227.052 202.353 228.628 200.044 228.208 198.943C227.787 197.736 225.896 197.998 225.003 199.415Z" fill="#688CDB"/>
<path d="M217.804 203.14C215.072 204.976 214.442 207.651 216.753 207.599C218.225 207.547 222.218 203.717 221.798 202.72C221.325 201.461 220.064 201.618 217.804 203.14Z" fill="#688CDB"/>
<path d="M56.7601 205.868C55.394 206.34 56.1296 208.124 58.2838 209.697C61.594 212.111 64.8517 211.534 62.4347 208.963C60.9635 207.442 57.5482 205.553 56.7601 205.868Z" fill="#688CDB"/>
<path d="M45.7786 211.324C44.1498 213.16 44.465 216.15 46.6193 218.354L48.4057 220.19H53.5024C56.8652 220.19 58.7567 219.98 59.0194 219.56C59.4923 218.826 57.3906 217.042 56.0245 217.042C55.1838 217.042 55.0262 216.623 55.0262 214.472C55.0262 211.114 53.8702 210.222 49.7193 210.222C47.4074 210.222 46.5667 210.432 45.7786 211.324ZM51.8736 214.891C51.8736 216.675 51.2431 217.252 49.7719 216.78C48.5634 216.413 47.46 214.629 47.9328 213.895C48.0905 213.58 49.0888 213.37 50.0871 213.37C51.7159 213.37 51.8736 213.527 51.8736 214.891Z" fill="#688CDB"/>
<path d="M64.4839 221.659C61.9618 222.761 59.2296 226.223 59.2296 228.322C59.2296 229.738 61.2788 232.991 62.9601 234.302C64.9568 235.824 67.006 236.558 69.6331 236.558C73.6264 236.558 75.045 234.093 73.9416 228.899C73.4162 226.433 72.9433 225.646 70.684 223.6C68.1094 221.292 66.4805 220.767 64.4839 221.659ZM68.6348 225.856C70.0009 226.958 70.4738 227.902 70.7365 229.686C71.2094 232.781 70.9992 233.306 69.1602 233.306C66.3229 233.306 62.3822 230.315 62.3822 228.217C62.3822 227.272 65.2195 224.387 66.1653 224.387C66.5856 224.387 67.689 225.069 68.6348 225.856Z" fill="#688CDB"/>
<path d="M208.767 224.387C206.928 224.964 200.307 229.948 195.946 234.04C192.111 237.713 191.69 237.555 191.165 232.676C190.955 230.84 190.482 228.794 190.114 228.112C189.484 226.958 189.168 226.905 186.121 227.115C179.868 227.64 173.668 231.889 167.731 239.706C165.787 242.329 164.473 243.274 162.949 243.274C162.161 243.274 162.109 242.801 162.424 238.342C162.739 233.62 162.687 233.358 161.583 232.571C160.007 231.469 158.273 231.522 154.017 232.834C149.393 234.25 142.615 237.66 137.203 241.28L133 244.165L129.952 241.332C126.537 238.132 122.281 235.824 117.762 234.67C111.983 233.253 108.935 233.358 107.779 235.142C106.991 236.401 106.991 236.558 108.305 239.077C109.04 240.493 109.671 242.329 109.671 243.064C109.671 244.48 109.671 244.48 106.728 244.113C103.523 243.746 101.474 242.854 98.6368 240.598C96.0622 238.552 90.8605 235.929 89.3893 235.929C87.8655 235.929 86.3943 237.975 86.9197 239.391C87.0774 239.916 88.1282 241.752 89.1791 243.536C91.491 247.261 94.4334 253.032 94.4334 253.714C94.4334 255.707 73.9942 273.335 65.5348 278.686C61.1737 281.466 60.8059 281.939 60.8059 285.244C60.8059 288.654 61.3313 289.283 67.006 293.061C75.7806 298.936 87.6028 303.396 100.949 305.966C109.303 307.593 127.798 308.222 137.571 307.278C147.397 306.334 169.57 301.874 177.977 299.146C180.131 298.464 185.228 297.048 189.273 295.999C197.207 293.953 204.931 291.067 213.969 286.87C221.64 283.25 247.964 269.715 250.118 268.193C251.117 267.564 252.483 266.882 253.271 266.672C255.215 266.2 256.528 264.154 255.793 262.79C252.903 257.438 229.521 246.212 215.44 243.431C212.918 242.959 210.133 242.067 209.345 241.542C207.138 240.021 207.664 238.447 213.075 229.948C214.599 227.587 214.652 227.325 213.969 225.961C212.865 223.862 211.709 223.548 208.767 224.387ZM185.543 236.349C186.594 239.916 188.275 243.064 189.641 244.008C191.848 245.582 193.057 245.057 197.575 240.755L201.884 236.716L202.147 239.968C202.357 242.434 202.724 243.536 203.723 244.585C205.982 247.051 208.977 248.572 212.34 249.097C219.643 250.094 231.991 254.763 242.5 260.429C246.125 262.37 246.755 262.947 246.178 263.472C245.81 263.839 237.35 268.298 227.367 273.335C208.767 282.778 199.362 286.923 191.27 289.126C188.748 289.86 183.599 291.277 179.816 292.326C167.888 295.736 163.79 296.681 153.544 298.622C140.461 301.035 136.31 301.507 126.485 301.507C112.876 301.56 104.627 300.773 96.2724 298.622C83.4519 295.317 77.9349 293.008 69.9484 287.657L66.5856 285.401L69.3178 283.565C74.9399 279.84 88.5486 268.613 93.9605 263.262C100.476 256.809 101.422 254.92 100.055 250.881L99.2673 248.677L101.737 249.412C104.942 250.409 110.039 250.513 112.14 249.622C114.4 248.677 115.503 246.894 115.818 243.483C115.976 241.91 116.396 240.65 116.712 240.65C118.656 240.65 123.49 243.798 127.168 247.313C130.951 250.986 131.371 251.248 132.947 250.933C133.841 250.776 135.575 249.884 136.73 249.044C141.827 245.267 151.232 239.968 154.7 238.867C155.646 238.552 155.804 238.814 156.066 242.067C156.434 246.526 156.749 247.313 158.483 248.205C160.795 249.412 163.055 249.674 165.471 249.044C167.836 248.415 170.936 245.582 175.822 239.654C178.239 236.716 182.233 233.83 183.862 233.83C184.492 233.83 184.965 234.565 185.543 236.349Z" fill="#688CDB"/>
<path d="M173.353 254.081C172.722 254.501 172.197 255.34 172.197 255.917C172.197 257.281 174.246 261.321 177.661 266.567C179.185 268.928 180.972 271.813 181.602 272.967C183.178 275.8 184.965 276.692 186.699 275.538C188.906 274.122 188.118 271.289 183.756 264.783C182.706 263.209 180.814 260.167 179.606 258.068C178.187 255.655 176.873 254.028 176.085 253.714C174.456 253.137 174.772 253.084 173.353 254.081Z" fill="#688CDB"/>
<path d="M111.878 254.606C109.618 256.179 109.881 256.809 118.446 269.977C121.861 275.171 126.38 282.201 128.534 285.506C132.58 291.854 133.998 293.323 136.047 293.008C137.519 292.798 139.042 290.28 138.307 289.231C137.256 287.762 131.319 278.686 124.33 267.774C115.03 253.346 114.505 252.769 111.878 254.606Z" fill="#688CDB"/>
<path d="M145.295 256.442C143.771 257.334 143.246 258.75 143.876 260.376C144.559 262.213 153.019 274.331 157.065 279.315C159.639 282.463 160.427 283.145 161.688 283.145C163.527 283.145 165.051 281.204 164.473 279.683C164.316 279.158 162.424 276.43 160.375 273.702C158.326 270.974 154.805 266.042 152.546 262.79C149.131 257.858 147.292 255.812 146.346 255.865C146.241 255.865 145.768 256.127 145.295 256.442Z" fill="#688CDB"/>
<path d="M52.9244 226.958C52.2939 228.164 52.6617 229.423 53.7651 229.843C54.816 230.263 55.9194 229.686 56.2346 228.637C56.8126 226.328 54.0278 224.912 52.9244 226.958Z" fill="#688CDB"/>
<path d="M236.037 280.102C235.459 280.417 233.567 282.044 231.833 283.67C230.099 285.349 227.262 287.605 225.528 288.654C217.962 293.48 194.475 303.711 181.234 307.908C173.826 310.268 160.427 312.892 152.231 313.574C140.829 314.518 118.551 315.305 110.459 314.99C97.008 314.465 89.7045 312.787 81.7705 308.485C78.8281 306.911 77.1467 307.068 76.0959 308.957C75.3603 310.268 75.3603 310.478 76.4111 311.842C77.0417 312.629 79.7739 316.354 82.4536 320.079C90.3876 331.096 92.2791 332.617 99.9504 334.296C103.418 335.083 105.625 335.188 113.349 334.926C131.213 334.296 152.02 332.985 157.748 332.145C179.816 328.945 202.514 322.912 213.548 317.298C214.652 316.774 218.382 315.2 221.85 313.836C228.943 311.003 234.776 308.222 235.616 307.173C236.877 305.704 240.503 288.287 240.503 283.88C240.503 281.624 240.293 280.942 239.347 280.312C237.981 279.315 237.455 279.315 236.037 280.102ZM232.096 297.677L230.888 303.133L228.733 304.235C227.525 304.865 223.531 306.596 219.748 308.117C216.018 309.586 210.501 311.947 207.558 313.259C202.567 315.515 190.429 319.344 180.236 321.915C174.666 323.332 155.331 326.532 149.866 326.899C147.554 327.109 140.934 327.476 135.154 327.738C129.374 328.001 120.968 328.525 116.501 328.84C103.628 329.837 97.2182 328.525 93.2774 324.171C91.0181 321.653 89.4944 319.397 89.8096 319.082C89.9147 318.925 92.0164 319.187 94.4859 319.607C106.15 321.6 121.493 321.653 149.604 319.869C157.59 319.344 171.146 317.089 179.553 314.833C191.848 311.527 223.216 297.887 231.045 292.431C232.043 291.697 232.989 291.382 233.094 291.644C233.199 291.959 232.726 294.635 232.096 297.677Z" fill="#688CDB"/>
</svg>
