<svg width="14" height="14" viewBox="0 0 14 14" fill="none" xmlns="http://www.w3.org/2000/svg">
<path d="M7.00002 4.08333V12.25M7.00002 4.08333C7.00002 3.46449 6.75419 2.871 6.3166 2.43342C5.87902 1.99583 5.28553 1.75 4.66669 1.75H1.75002C1.59531 1.75 1.44694 1.81146 1.33754 1.92085C1.22815 2.03025 1.16669 2.17862 1.16669 2.33333V9.91667C1.16669 10.0714 1.22815 10.2197 1.33754 10.3291C1.44694 10.4385 1.59531 10.5 1.75002 10.5H5.25002C5.71415 10.5 6.15927 10.6844 6.48746 11.0126C6.81565 11.3408 7.00002 11.7859 7.00002 12.25M7.00002 4.08333C7.00002 3.46449 7.24585 2.871 7.68344 2.43342C8.12102 1.99583 8.71452 1.75 9.33335 1.75H12.25C12.4047 1.75 12.5531 1.81146 12.6625 1.92085C12.7719 2.03025 12.8334 2.17862 12.8334 2.33333V9.91667C12.8334 10.0714 12.7719 10.2197 12.6625 10.3291C12.5531 10.4385 12.4047 10.5 12.25 10.5H8.75002C8.28589 10.5 7.84077 10.6844 7.51258 11.0126C7.1844 11.3408 7.00002 11.7859 7.00002 12.25" stroke="black" stroke-linecap="round" stroke-linejoin="round"/>
</svg>
