<svg width="14" height="14" viewBox="0 0 14 14" fill="none" xmlns="http://www.w3.org/2000/svg">
<path d="M2.33332 12.8334H10.5C10.8094 12.8334 11.1062 12.7105 11.3249 12.4917C11.5437 12.2729 11.6667 11.9762 11.6667 11.6667V4.08341L8.74999 1.16675H3.49999C3.19057 1.16675 2.89382 1.28966 2.67503 1.50846C2.45624 1.72725 2.33332 2.024 2.33332 2.33341V4.66675M8.16666 1.16675V3.50008C8.16666 3.8095 8.28957 4.10625 8.50837 4.32504C8.72716 4.54383 9.0239 4.66675 9.33332 4.66675H11.6667M1.16666 8.75008H6.99999M6.99999 8.75008L5.24999 10.5001M6.99999 8.75008L5.24999 7.00008" stroke="black" stroke-linecap="round" stroke-linejoin="round"/>
</svg>
