<svg width="14" height="14" viewBox="0 0 14 14" fill="none" xmlns="http://www.w3.org/2000/svg">
<path d="M7.00003 11.6668H12.25M9.55269 2.11292C9.78491 1.8807 10.0999 1.75024 10.4283 1.75024C10.7567 1.75024 11.0716 1.8807 11.3039 2.11292C11.5361 2.34514 11.6665 2.6601 11.6665 2.98851C11.6665 3.31691 11.5361 3.63187 11.3039 3.86409L4.29803 10.8705C4.15925 11.0093 3.98771 11.1108 3.79928 11.1657L2.12394 11.6545C2.07375 11.6691 2.02054 11.67 1.96989 11.657C1.91924 11.6441 1.87301 11.6177 1.83604 11.5807C1.79907 11.5438 1.77271 11.4975 1.75974 11.4469C1.74676 11.3962 1.74764 11.343 1.76228 11.2928L2.25111 9.61751C2.30607 9.42928 2.40759 9.25795 2.54628 9.11934L9.55269 2.11292Z" stroke="black" stroke-linecap="round" stroke-linejoin="round"/>
</svg>
